<svg width="588" height="144" viewBox="0 0 588 144" fill="none" xmlns="http://www.w3.org/2000/svg">
<g style="mix-blend-mode:luminosity">
<path d="M186.963 128.257C188.175 125.612 188.285 124.51 188.285 117.495C185.14 117.995 180.906 118.613 175.713 119.719C166.785 121.66 165.257 125.006 165.257 128.364C165.257 132.222 168.308 135.477 174.296 135.477C179.865 135.477 184.645 133.233 186.963 128.257V128.257ZM197.995 141.506L189.608 141.547C189.608 141.547 188.879 138.147 188.65 134.466C186.209 136.984 181.688 142.218 172.572 142.218C163.234 142.218 156.301 136.673 156.301 128.569C156.301 126.017 157.014 123.482 158.431 121.353C161.183 117.29 166.285 114.043 180.582 112.921L188.175 112.314V111.098C188.175 106.122 188.175 97.8007 177.466 97.8007C170.721 97.8007 168.444 101.065 167.645 104.017L160.228 100.917C160.347 100.659 160.482 100.389 160.618 100.131C163.476 94.8603 169.062 91.6087 177.171 91.6087C181.606 91.6087 187.368 92.7267 191.132 95.6712C196.472 99.7296 196.365 107.715 196.365 107.715L196.677 132.344C196.677 132.344 196.971 139.495 197.995 141.506ZM465.995 128.257C467.211 125.612 467.309 124.51 467.309 117.495C464.177 117.995 459.93 118.613 454.737 119.719C445.821 121.66 444.298 125.006 444.298 128.364C444.298 132.222 447.345 135.477 453.32 135.477C458.906 135.477 463.665 133.233 465.995 128.257V128.257ZM477.023 141.506L468.628 141.547C468.628 141.547 467.899 138.147 467.674 134.466C465.245 136.984 460.724 142.218 451.592 142.218C442.263 142.218 435.342 136.673 435.342 128.569C435.342 126.017 436.054 123.482 437.471 121.353C440.223 117.29 445.31 114.043 459.602 112.921L467.211 112.314V111.098C467.211 106.122 467.211 97.8007 456.49 97.8007C449.761 97.8007 447.451 101.065 446.681 104.017L439.265 100.917C439.371 100.659 439.506 100.389 439.654 100.131C442.504 94.8603 448.098 91.6087 456.195 91.6087C460.642 91.6087 466.404 92.7267 470.164 95.6712C475.508 99.7296 475.377 107.715 475.377 107.715L475.709 132.344C475.709 132.344 475.983 139.495 477.023 141.506ZM385.428 132.304C382.676 136.984 377.373 142.341 366.909 142.341C352.727 142.341 344.586 132.709 344.586 116.549C344.586 98.5133 356.483 91.6087 366.61 91.6087C375.432 91.6087 383.868 96.4821 386.706 108.539C387.611 112.597 387.611 116.254 387.611 118.277H353.108C352.908 126.3 356.278 136.46 367.622 136.272C372.25 136.19 375.514 134.085 377.59 130.792L385.428 132.304ZM353.325 112.491H378.79C378.077 99.9303 370.833 97.8007 366.004 97.8007C359.112 97.8007 354.226 102.858 353.325 112.491V112.491ZM293.784 132.304C291.032 136.984 285.733 142.341 275.277 142.341C261.087 142.341 252.925 132.709 252.925 116.549C252.925 98.5133 264.838 91.6087 274.966 91.6087C283.775 91.6087 292.22 96.4821 295.066 108.539C295.967 112.597 295.967 116.254 295.967 118.277H261.476C261.263 126.3 264.634 136.46 275.978 136.272C280.605 136.19 283.869 134.085 285.95 130.792L293.784 132.304ZM261.681 112.491H287.145C286.433 99.9303 279.188 97.8007 274.36 97.8007C267.468 97.8007 262.586 102.858 261.681 112.491ZM425.832 129.875C424.141 133.172 420.975 136.149 414.742 136.149C409.32 136.149 400.22 132.734 400.22 116.901C400.22 112.638 400.99 97.5427 414.239 97.5427C420.93 97.5427 424.01 101.183 425.435 104.333L432.991 101.175C428.339 93.427 419.947 91.6209 413.944 91.6209C398.648 91.6209 391.256 103.927 391.256 117.507C391.256 129.257 397.665 142.341 414.644 142.341C424.477 142.341 429.96 137.591 432.954 132.856L425.832 129.875ZM300.611 93.4556V141.506H308.67V114.256C308.67 110.693 308.67 107.052 312.237 103.505C314.785 100.97 317.848 99.8648 321.407 99.8648C325.789 99.8648 330.281 101.888 331.698 106.446C332.214 108.064 332.214 109.48 332.214 114.35V141.506H340.253V113.031C340.253 108.969 340.253 106.04 339.43 103.198C337.1 95.278 329.769 92.2148 323.643 92.2148C320.801 92.2148 313.155 92.9273 308.67 100.77V93.4556H300.611ZM203.704 78.3358V86.1169H239.612L203.675 133.29V141.506H250.091V133.921H213.426L249.186 86.2111V78.3358H203.704ZM131.508 93.4556V141.506H139.56V119.412C139.56 115.292 139.453 110.41 141.599 106.929C144.216 102.67 148.098 101.052 156.002 100.995V92.6734C152.755 92.7799 144.134 92.9847 139.56 102.048V93.4556H131.508ZM115.496 78.3195L107.186 81.7882V93.4556H99.565V100.172H107.186V131.026C107.08 137.3 107.08 141.829 116.413 141.829C119.464 141.829 122.806 141.223 124.223 141.022V134.368C122.605 134.871 120.476 135.477 118.948 135.477C115.496 135.477 115.496 133.049 115.496 127.385V100.172H124.223V93.4556H115.496V78.3195ZM89.3678 128.122C89.3678 133.274 85.1865 136.014 78.0525 136.014C72.2904 136.014 68.4204 134.396 66.2744 130.67L57.748 132.168C61.0652 138.958 67.974 142.206 77.7003 142.206C90.9035 142.206 97.7999 134.896 97.7999 127.111C97.7999 117.102 88.5733 114.391 77.9542 112.245C72.831 111.221 66.815 109.317 66.815 104.775C66.815 101.54 69.9684 97.8007 76.2956 97.8007C82.758 97.8007 86.6157 102.195 87.2095 103.935L94.6957 100.819C91.268 94.2788 84.4043 91.6087 77.2129 91.6087C66.1106 91.6087 58.7473 97.0882 58.7473 105.787C58.7473 115.685 67.2327 117.63 75.4479 119.412C82.5163 120.931 89.3678 122.671 89.3678 128.122V128.122ZM47.3092 141.506H56.1714L33.1722 78.3195H24.4042L0.340332 141.506H9.28034L16.3488 122.131H40.4291L47.3092 141.506ZM19.0353 115.054L28.7043 88.7993L37.9187 115.054H19.0353Z" fill="#7D0F4F"/>
<path d="M567.158 60.0043C557.698 56.7158 534.297 47.9928 509.611 44.7453C501.126 43.6314 497.702 46.6455 501.207 54.7378C504.643 62.7236 513.587 76.107 522.953 86.1445C532.311 96.1821 542.472 98.8768 545.695 83.4171C545.817 82.8683 545.924 82.3154 546.03 81.7749C546.813 77.7942 547.394 73.9406 547.689 70.5661C543.536 68.6822 538.884 66.6714 534.228 64.7057C534.486 68.2563 534.903 74.3788 535.12 79.0884C535.145 79.6945 535.174 80.276 535.186 80.8452C535.469 88.4788 532.868 88.4502 528.523 85.3337C523.465 81.7175 507.977 61.2575 506.2 52.2233C506.122 51.6295 506.4 51.609 506.707 51.7032C506.822 51.7482 506.941 51.7974 507.088 51.8588C507.105 51.8588 507.113 51.867 507.129 51.867C510.627 53.243 522.265 57.8338 534.093 62.8178C538.814 64.8081 543.553 66.8516 547.812 68.7805C552.005 70.6766 555.744 72.4499 558.537 73.9406C563.644 76.6762 565.63 78.5355 563.489 80.7224C552.841 91.5257 515.697 106.891 502.866 125.885C502.866 125.885 502.813 125.951 502.731 126.074C502.583 126.274 502.448 126.504 502.313 126.745C502.272 126.815 502.248 126.897 502.203 126.962C501.572 128.121 500.667 130.144 500.347 132.606C499.807 136.754 501.961 140.546 507.924 142.156C509.418 142.598 511.118 142.922 512.981 143.11C513.305 143.135 513.669 143.167 514.034 143.175C525.484 143.732 555.216 137.217 564.267 133.195C573.612 129.043 570.823 124.915 568.112 122.769C566.085 121.151 555.675 115.348 550.629 112.555C549.282 113.419 548.217 114.095 546.882 114.959C555.474 120.205 558.873 122.81 560.884 124.349C561.65 124.956 561.232 125.668 560.085 125.75C559.774 125.775 559.52 125.787 559.168 125.816C551.01 126.381 535.55 127.466 528.294 127.851C527.229 127.921 526.029 127.974 525.366 127.998C527.159 126.315 529.186 124.792 530.182 124.087C545.695 113.178 571.569 97.8407 579.186 91.2432C584.8 86.3862 600.121 71.5121 567.158 60.0043ZM529.51 101.064C528.257 101.862 527 102.657 525.755 103.48C511.282 95.4367 480.178 79.9402 477.479 78.5355C474.592 77.0407 469.559 75.0217 470.198 70.2302C471.087 63.5058 482.75 48.7914 487.705 42.7468C514.538 9.93535 526.553 -0.188199 534.527 0.86429C543.024 1.97411 547.742 10.7585 548.311 51.8875C543.573 50.4214 538.331 48.9143 532.758 47.5219C532.299 41.5469 531.189 32.525 530.763 29.4125C530.288 25.8988 529.604 24.5637 528.187 24.3712C526.582 24.1665 522.671 27.9218 519.12 31.5544C517.503 33.2007 512.94 37.8161 507.911 42.886C503.706 42.6116 500.896 43.488 499.344 45.5357C498.107 47.1902 497.833 49.4508 498.574 52.2929C495.851 55.0081 493.516 57.3547 492.034 58.829C486.436 64.4108 480.526 69.0262 480.219 71.2909C479.977 73.1379 482.811 75.0545 486.837 77.4584C496.69 83.3393 520.93 96.4483 529.51 101.064Z" fill="#F9A70D"/>
</g>
</svg>
