<svg width="230" height="53" viewBox="0 0 230 53" fill="none" xmlns="http://www.w3.org/2000/svg">
<g style="mix-blend-mode:luminosity">
<path d="M4.46155 50.1977H16.0363H4.46155Z" fill="black"/>
<path d="M4.46155 50.1977H16.0363" stroke="#A6DFF9" stroke-width="2.8023" stroke-linecap="round"/>
<path d="M22.7374 50.1977H34.3121H22.7374Z" fill="black"/>
<path d="M22.7374 50.1977H34.3121" stroke="#93DAF8" stroke-width="2.8023" stroke-linecap="round"/>
<path d="M41.0133 50.1977H52.588H41.0133Z" fill="black"/>
<path d="M41.0133 50.1977H52.588" stroke="#7ED4F7" stroke-width="2.8023" stroke-linecap="round"/>
<path d="M59.2892 50.1977H70.8639H59.2892Z" fill="black"/>
<path d="M59.2892 50.1977H70.8639" stroke="#6BCFF6" stroke-width="2.8023" stroke-linecap="round"/>
<path d="M77.5649 50.1977H89.1397H77.5649Z" fill="black"/>
<path d="M77.5649 50.1977H89.1397" stroke="#52CBF5" stroke-width="2.8023" stroke-linecap="round"/>
<path d="M95.8408 50.1977H107.416H95.8408Z" fill="black"/>
<path d="M95.8408 50.1977H107.416" stroke="#39C6F4" stroke-width="2.8023" stroke-linecap="round"/>
<path d="M114.117 50.1977H125.691H114.117Z" fill="black"/>
<path d="M114.117 50.1977H125.691" stroke="#20C2F3" stroke-width="2.8023" stroke-linecap="round"/>
<path d="M132.393 50.1977H143.967H132.393Z" fill="black"/>
<path d="M132.393 50.1977H143.967" stroke="#04BEF2" stroke-width="2.8023" stroke-linecap="round"/>
<path d="M150.668 50.1977H162.243H150.668Z" fill="black"/>
<path d="M150.668 50.1977H162.243" stroke="#00BAF2" stroke-width="2.8023" stroke-linecap="round"/>
<path d="M168.944 50.1977H180.519H168.944Z" fill="black"/>
<path d="M168.944 50.1977H180.519" stroke="#00B6F1" stroke-width="2.8023" stroke-linecap="round"/>
<path d="M187.22 50.1977H198.795H187.22Z" fill="black"/>
<path d="M187.22 50.1977H198.795" stroke="#00B3F0" stroke-width="2.8023" stroke-linecap="round"/>
<path d="M205.496 50.1977H217.071H205.496Z" fill="black"/>
<path d="M205.496 50.1977H217.071" stroke="#00AFEF" stroke-width="2.8023" stroke-linecap="round"/>
<path d="M104.491 1.4621V16.3874C103.365 14.6767 101.826 13.2775 100.016 12.3192C98.2055 11.3609 96.183 10.8744 94.1351 10.9046C90.358 10.9046 87.1902 12.2449 84.5098 14.9253C83.2448 16.1968 82.248 17.7093 81.5783 19.3731C80.9086 21.0369 80.5796 22.8183 80.6109 24.6115C80.6109 28.5104 81.9511 31.7391 84.5707 34.4196C87.1293 37.1609 90.358 38.5012 94.0132 38.5012C96.1454 38.5012 98.0948 38.0138 99.8615 37.2219C101.567 36.3081 103.151 35.0288 104.552 33.323V37.8311H107.903V1.4621H104.491ZM16.158 10.6C14.3305 10.6 12.5029 11.0874 10.7971 12.123C9.35863 13.1042 8.13557 14.3687 7.20287 15.8391V11.2701H3.85229V37.8311H7.20287V26.5609C7.20287 23.2104 7.56839 20.7736 8.17758 19.1288C8.77914 17.5869 9.81631 16.2534 11.1626 15.2908C12.5029 14.377 13.9649 13.8897 15.4879 13.8897C16.8282 13.8897 17.9856 14.2552 19.0213 14.9253C19.9817 15.5997 20.7061 16.5586 21.0925 17.6667C21.458 18.8851 21.6408 21.0173 21.6408 24.246V37.8311H24.9914V27.4747C24.9914 23.6368 25.296 20.8954 25.9052 19.2506C26.5144 17.6667 27.55 16.3265 28.8902 15.3518C30.2305 14.377 31.6925 13.8897 33.3374 13.8897C34.6776 13.8897 35.7741 14.1943 36.7488 14.8644C37.7236 15.4736 38.3937 16.3874 38.8201 17.423C39.2465 18.5196 39.4293 20.469 39.4293 23.3322V37.8311H42.8408V23.3931C42.8408 20.1035 42.5362 17.5449 41.8661 15.9C41.2596 14.3038 40.1713 12.9358 38.7522 11.9861C37.333 11.0364 35.6535 10.5519 33.9465 10.6C32.058 10.6 30.2914 11.2092 28.5856 12.2449C26.9408 13.3414 25.5397 14.9253 24.3822 16.9966C23.8948 15.4736 23.2247 14.2552 22.5546 13.4023C21.7942 12.5183 20.8334 11.829 19.7523 11.392C18.5948 10.8437 17.4374 10.6 16.0971 10.6H16.158ZM62.0305 10.6C58.0707 10.6 54.781 12.0621 52.2833 15.0472C49.902 17.66 48.5963 21.0764 48.6282 24.6115C48.6282 28.2667 49.8465 31.5564 52.4052 34.3587C54.8419 37.1 58.0707 38.5012 61.9695 38.5012C63.7757 38.5536 65.5709 38.2036 67.2251 37.4766C68.8793 36.7496 70.3511 35.6637 71.5339 34.2977C73.9663 31.6634 75.2963 28.1968 75.25 24.6115C75.25 20.9564 74.0925 17.7276 71.7167 14.9862C70.5237 13.5683 69.0301 12.4335 67.3442 11.6643C65.6583 10.8952 63.8224 10.5108 61.9695 10.5391L62.0305 10.6ZM127.519 10.6C123.255 10.6 119.843 12.2449 117.224 15.5954C115.213 18.215 114.239 21.2 114.239 24.6115C114.239 28.2058 115.457 31.3736 117.833 34.2368C119.042 35.6551 120.561 36.7771 122.271 37.5164C123.982 38.2557 125.84 38.5926 127.702 38.5012C131.09 38.5499 134.365 37.2834 136.84 34.9678C138.058 33.8713 139.155 32.3483 140.007 30.5207L137.266 28.9977C136.23 30.7644 135.317 32.0437 134.403 32.7747C132.449 34.4385 129.963 35.3464 127.397 35.3334C124.717 35.3334 122.402 34.3587 120.574 32.4092C118.686 30.3989 117.711 27.9012 117.65 24.7943H140.921C140.921 21.1391 139.947 18.0931 138.058 15.6564C136.836 14.0293 135.241 12.7204 133.406 11.8403C131.572 10.9602 129.553 10.5348 127.519 10.6ZM156.029 10.6C154.75 10.6 153.532 10.9655 152.374 11.6966C151.015 12.6128 149.855 13.7938 148.963 15.169V11.2092H145.429V37.7701H148.963V28.8759C148.963 24.246 149.206 21.1391 149.633 19.677C150.242 17.6667 151.034 16.2046 152.07 15.2908C152.986 14.4057 154.207 13.9045 155.481 13.8897C155.907 13.8897 156.517 14.0115 157.309 14.377L159.136 11.4529C157.979 10.8437 157.004 10.5391 156.029 10.5391V10.6ZM176.133 10.6C174.183 10.6 172.417 11.0265 170.772 11.9403C169.011 12.9615 167.493 14.3544 166.325 16.0219V11.2092H162.974V37.7701H166.325V28.023C166.325 24.5506 166.507 22.1138 166.812 20.7736C167.299 18.7632 168.396 17.1184 169.98 15.7173C171.625 14.3161 173.452 13.646 175.463 13.646C177.29 13.646 178.691 14.1334 179.727 14.9862C180.918 16.0024 181.715 17.4033 181.981 18.946C182.286 19.9816 182.407 21.992 182.407 25.0989V37.7701H185.758V24.1851C185.758 20.5299 185.393 17.8495 184.661 16.1437C183.93 14.438 182.834 13.0977 181.311 12.0621C179.778 11.0446 177.973 10.5138 176.133 10.5391V10.6ZM204.765 10.6C201.171 10.6 198.064 11.9403 195.505 14.6207C194.242 15.9188 193.248 17.4533 192.579 19.1363C191.91 20.8193 191.579 22.6178 191.606 24.4288C191.529 28.1147 192.908 31.6825 195.444 34.3587C196.705 35.7434 198.259 36.8284 199.994 37.5342C201.728 38.2401 203.599 38.5488 205.468 38.4378C207.337 38.3268 209.158 37.7989 210.797 36.8928C212.435 35.9867 213.851 34.7253 214.939 33.2012V37.8311H218.228V11.2092H214.999V16.0828C213.862 14.3352 212.314 12.8921 210.491 11.8793C208.76 10.9884 206.833 10.5484 204.887 10.6H204.765ZM127.519 13.8288C129.103 13.8288 130.565 14.1943 131.905 14.8644C133.367 15.4736 134.464 16.3874 135.317 17.4839C136.109 18.5805 136.779 19.9816 137.266 21.8092H117.955C118.686 19.3724 119.66 17.5449 121.001 16.3265C122.828 14.6816 125.021 13.8897 127.519 13.8897V13.8288ZM205.07 13.8288C207.933 13.8288 210.309 14.8644 212.319 16.9357C214.207 19.0069 215.182 21.5655 215.182 24.6724C215.182 26.6828 214.756 28.5104 213.964 30.0943C213.088 31.6726 211.809 32.9896 210.257 33.9103C208.704 34.8309 206.935 35.3221 205.13 35.3334C203.303 35.3334 201.597 34.846 200.013 33.9322C197.681 32.3837 196.009 30.0226 195.322 27.3086C194.635 24.5947 194.982 21.7222 196.297 19.2506C197.126 17.6372 198.383 16.2834 199.93 15.3376C201.478 14.3919 203.256 13.8909 205.07 13.8897V13.8288ZM61.9086 13.9506C64.65 13.9506 67.0259 14.9862 68.9753 17.0575C70.557 18.7851 71.5644 20.9604 71.859 23.2841C72.1535 25.6079 71.7207 27.9657 70.6201 30.0334C69.8063 31.6233 68.5661 32.9553 67.0384 33.8806C65.5106 34.8058 63.7556 35.2878 61.9695 35.2724C60.1835 35.2878 58.4285 34.8058 56.9007 33.8806C55.373 32.9553 54.1328 31.6233 53.319 30.0334C52.4366 28.3844 51.9762 26.5426 51.9787 24.6724C51.9787 21.6874 52.9534 19.1897 54.9029 17.0575C56.8523 14.9862 59.1672 13.9506 61.9695 13.9506H61.9086ZM94.3178 14.1334C95.7038 14.1328 97.0759 14.4104 98.3526 14.9498C99.6294 15.4892 100.785 16.2794 101.751 17.2735C102.716 18.2677 103.473 19.4456 103.975 20.7375C104.477 22.0293 104.715 23.4089 104.674 24.7943C104.703 26.6869 104.241 28.5548 103.334 30.2161C102.384 31.7779 101.052 33.0725 99.4646 33.9783C97.8768 34.8841 96.0848 35.3714 94.2569 35.3943C92.4232 35.3736 90.628 34.8663 89.0546 33.9244C87.4812 32.9825 86.1861 31.6398 85.3017 30.0334C84.3946 28.4142 83.9182 26.5893 83.9182 24.7334C83.9182 22.8774 84.3946 21.0525 85.3017 19.4334C86.184 17.8165 87.4887 16.4695 89.0766 15.5361C90.6645 14.6027 92.476 14.1179 94.3178 14.1334ZM223.163 13.3414H223.65C223.894 13.3414 224.076 13.3414 224.137 13.2196C224.259 13.2196 224.32 13.0977 224.32 12.9759L224.198 12.7931C224.198 12.6713 224.198 12.6713 224.076 12.6104H223.163V13.3414ZM222.797 14.7426V12.3058H224.259C224.442 12.3667 224.564 12.4885 224.625 12.6104L224.747 12.915C224.747 13.1586 224.625 13.2805 224.564 13.4023C224.387 13.5377 224.176 13.622 223.955 13.646L224.198 13.7678L224.564 14.2552L224.868 14.7426H224.381L224.198 14.3161L223.772 13.7069H223.224V14.7426H222.797ZM223.772 11.5138C223.467 11.5138 223.163 11.5747 222.858 11.8184C222.553 11.9403 222.31 12.1839 222.188 12.4885C222.004 12.7803 221.906 13.1183 221.906 13.4632C221.906 13.8082 222.004 14.1461 222.188 14.438C222.31 14.7426 222.553 14.9862 222.858 15.1081C223.163 15.3518 223.467 15.4127 223.772 15.4127C224.137 15.4127 224.442 15.3518 224.747 15.1081C225.051 14.9862 225.356 14.7426 225.478 14.438C225.599 14.1334 225.721 13.8288 225.721 13.4632C225.721 13.1586 225.599 12.8541 225.478 12.4885C225.3 12.2021 225.047 11.9701 224.747 11.8184C224.442 11.5747 224.137 11.5138 223.772 11.5138ZM223.772 11.2092C224.198 11.2092 224.564 11.2701 224.929 11.4529C225.295 11.6357 225.538 11.9403 225.782 12.3058C226.026 12.6713 226.087 13.0368 226.087 13.5242C226.087 13.8897 226.026 14.2552 225.782 14.6207C225.599 14.9862 225.295 15.2299 224.929 15.4736C224.575 15.6698 224.177 15.7745 223.772 15.7782C223.406 15.7782 223.041 15.6564 222.675 15.4736C222.31 15.2908 222.066 14.9862 221.822 14.6207C221.64 14.2552 221.518 13.8897 221.518 13.4632C221.518 13.0368 221.64 12.6713 221.822 12.3058C222.066 11.9403 222.31 11.6966 222.675 11.4529C223.041 11.2701 223.467 11.2092 223.772 11.2092Z" fill="#E51937"/>
</g>
</svg>
