<svg width="816" height="329" viewBox="0 0 816 329" fill="none" xmlns="http://www.w3.org/2000/svg">
<g style="mix-blend-mode:luminosity">
<path d="M21.0421 131.598C30.3814 97.0911 69.6545 88.7051 106.039 87.7321C135.972 86.7691 169.126 90.9621 169.126 90.9621L153.357 148.049C153.357 148.049 120.203 144.177 90.2591 144.829C54.2061 146.113 14.612 154.178 5.27271 189.016L21.0421 131.598Z" fill="#0095FF"/>
<path d="M231.582 296.098C116.662 286.749 1.73163 231.909 6.23575 185.465L21.0422 131.598C16.538 177.079 140.477 232.24 247.362 239.011L231.582 296.098ZM285.993 164.5C276.653 199.017 237.059 207.403 201.006 208.366C171.062 209.339 137.908 205.146 137.908 205.146L153.357 148.049C153.357 148.049 186.511 151.921 216.455 151.279C252.829 150.306 292.092 141.92 301.441 107.423L285.993 164.5ZM301.441 107.423V107.413V107.423Z" fill="#0000C9"/>
<path d="M59.6732 57.087C166.237 63.868 290.497 119.019 285.993 164.5L300.799 110.633C305.303 64.189 190.052 9.34899 75.4527 0L59.6732 57.087Z" fill="#0095FF"/>
<path d="M402.528 103.541C436.003 103.541 448.241 128.047 443.406 149.343C438.26 172.244 418.297 188.695 388.684 188.695H361.64L348.117 238.69H317.22L353.915 103.541H402.528ZM365.823 172.565H377.419C392.868 172.565 410.252 162.885 412.509 146.755C415.077 129.341 405.106 119.34 392.547 119.34H380.639L365.823 172.565ZM710.603 195.466H652.662C650.726 213.201 659.744 224.496 673.908 224.496C688.073 224.496 698.375 216.11 698.375 216.11L703.842 229.983C703.842 229.983 691.614 240.626 667.468 240.626C633.341 240.626 621.113 211.917 625.296 190.3C630.121 168.051 648.8 145.471 674.871 145.471C717.044 145.471 714.786 185.144 710.603 195.466ZM654.919 181.593H687.431C687.431 181.593 690.972 160.307 674.871 160.307C660.286 160.307 655.069 181.282 654.919 181.593ZM654.909 181.593C654.909 181.603 654.919 181.603 654.919 181.593H654.909ZM522.925 70.96C570.896 70.96 564.455 118.056 539.026 118.056C527.108 118.056 520.347 108.697 522.925 99.669C524.861 92.898 531.612 84.512 518.421 83.86C506.504 83.218 498.458 96.439 493.312 114.826C490.734 124.827 487.514 137.085 484.294 148.37H544.814L520.026 238.69H490.413L510.687 163.206H479.79L434.719 329H405.106L455.965 142.241C462.726 117.083 474.955 70.96 522.925 70.96ZM634.956 148.37L575.721 223.523H618.214L614.031 238.69H530.328L589.564 163.537H551.896L556.079 148.37H634.956ZM791.407 179.336C778.857 179.336 779.499 163.858 773.059 164.5C767.582 165.142 756.317 178.052 750.528 198.686C746.666 211.917 739.584 238.369 739.584 238.369H709.961L734.749 148.049H764.372L759.216 166.757C759.216 166.757 770.802 146.755 790.123 146.755C814.268 146.755 810.406 179.657 791.407 179.336Z" fill="#0000C9"/>
</g>
</svg>
