<svg width="100" height="17" viewBox="0 0 100 17" fill="none" xmlns="http://www.w3.org/2000/svg">
<g style="mix-blend-mode:luminosity">
<path d="M19.2208 16.4403V14.5609V2.42091V0.541504H15.1572V2.42091V14.5609V16.4403H19.2208Z" fill="black"/>
<path d="M54.7264 8.51627C54.7264 11.1068 54.0153 13.1386 52.6438 14.6117C51.2216 16.0847 49.2914 16.7958 46.8024 16.7958C44.3135 16.7958 42.3325 16.0847 40.961 14.6117C39.5388 13.1386 38.8784 11.1068 38.8784 8.51627C38.8784 5.87494 39.5895 3.84314 40.961 2.37009C42.3325 0.897041 44.3135 0.185913 46.8532 0.185913C49.393 0.185913 51.3232 0.897041 52.7454 2.37009C54.0661 3.79235 54.7264 5.87494 54.7264 8.51627ZM50.866 8.51627C50.866 6.84004 50.5104 5.51937 49.7993 4.55427C49.0882 3.58917 48.0723 3.08122 46.8024 3.08122C45.4818 3.08122 44.5166 3.58917 43.8055 4.55427C43.0944 5.51937 42.7388 6.84004 42.7388 8.51627C42.7388 10.1925 43.0944 11.4624 43.8055 12.4783C44.5166 13.4434 45.5325 13.9513 46.8024 13.9513C48.0723 13.9513 49.0882 13.4434 49.7993 12.4783C50.5104 11.4624 50.866 10.1417 50.866 8.51627Z" fill="black"/>
<path d="M63.5139 11.9703L67.2727 0.541504H71.3363L65.9013 16.4403H61.1774L55.7423 0.541504H59.8059L63.5139 11.9703Z" fill="#D6000F"/>
<path d="M0.579073 16.1863V13.037C2.35689 13.5958 3.93154 13.8497 5.303 13.8497C7.2332 13.8497 8.14751 13.3418 8.14751 12.3259C8.14751 11.9703 7.99512 11.6148 7.74115 11.3608C7.43638 11.1068 6.72525 10.7005 5.55697 10.2433C3.47438 9.3798 2.10292 8.61787 1.44259 8.00833C0.629868 7.19562 0.223511 6.17972 0.223511 4.96064C0.223511 3.386 0.833048 2.16693 2.05212 1.35421C3.22041 0.541491 4.79505 0.135132 6.72525 0.135132C7.79194 0.135132 9.51897 0.287516 11.4492 0.693875V3.48759C9.92533 3.08123 8.45228 2.82726 7.1824 2.82726C5.40458 2.82726 4.49028 3.33521 4.49028 4.30031C4.49028 4.65587 4.69346 4.96064 5.04902 5.21462C5.35379 5.4178 6.16651 5.82415 7.53797 6.43369C9.46817 7.29721 10.7888 8.05913 11.4492 8.66867C12.2111 9.43059 12.6175 10.3957 12.6175 11.6148C12.6175 13.3418 11.8555 14.6625 10.3825 15.5768C9.1634 16.3387 7.58876 16.6943 5.65856 16.6943C3.88074 16.7451 2.2553 16.5927 0.579073 16.1863Z" fill="black"/>
<path d="M22.2684 16.4403V0.541504H27.3479L32.9861 11.1576V0.541504H36.1354V16.4403H31.3607L25.4177 5.62099V16.4403H22.2684Z" fill="black"/>
<path d="M77.7365 5.01145L74.0284 16.4403H69.9648L75.3999 0.541504H80.1238L85.5589 16.4403H81.4953L77.7365 5.01145Z" fill="#D6000F"/>
<path d="M99.4259 13.3418C98.2068 13.6973 96.3274 13.9005 95.6163 13.9005C93.94 13.9005 92.6194 13.3926 91.6543 12.4275C90.6384 11.4624 90.1812 10.1417 90.1812 8.51625C90.1812 6.89082 90.6892 5.62095 91.6543 4.60505C92.6194 3.58915 93.8892 3.08121 95.5147 3.08121C96.175 3.08121 97.6989 3.1828 99.4767 3.79233V0.897027C99.0703 0.744643 98.5116 0.592258 97.902 0.490669C97.1401 0.338284 96.2766 0.236694 95.3115 0.236694C92.5686 0.236694 90.3844 0.998617 88.759 2.52246C87.1335 4.04631 86.3208 6.0781 86.3208 8.66864C86.3208 11.2084 87.1335 13.2402 88.759 14.6624C90.3844 16.1355 92.5686 16.8466 95.4131 16.8466C96.2766 16.8466 97.0893 16.7958 97.8512 16.6434C98.4608 16.5418 99.0195 16.4403 99.5783 16.2879V13.3418H99.4259Z" fill="#D6000F"/>
</g>
</svg>
